<?xml version="1.0" encoding="UTF-8"?>
<svg version="1.1" viewBox="0 0 128 128"
    xmlns="http://www.w3.org/2000/svg">
    <g fill="#682079">
        <path
            d="m55.7688 102.8928s-11.5031-23.2164 11.5031-34.8264c-3.832 15.4759 5.1539 14.2875 7.664 19.3428 2.5171 5.0625-3.832 15.4759-3.832 15.4759 30.5586-14.0765 28.6884-36.4086 15.3351-54.1692-3.9586 7.0875-12.7195 11.7914-12.7195 11.7914s5.1046-9.689 5.0555-19.5336c-6.7711-7.411-11.5031-11.6086-23.0058-15.4759 9.2741 29.664-23.0058 25.6086-23.0058 50.2884 0 15.1945 23.0058 27.1062 23.0058 27.1062z" />
        <path
            d="m64.2 127.074c34.7274 0 62.874-28.1466 62.874-62.874s-28.1466-62.874-62.874-62.874-62.874 28.1466-62.874 62.874 28.1466 62.874 62.874 62.874zm0-120.9096c32.0058 0 58.0356 26.037 58.0356 58.0356 0 32.0058-26.037 58.0356-58.0356 58.0356-32.0058 0-58.0356-26.037-58.0356-58.0356 0-32.0058 26.0298-58.0356 58.0356-58.0356z" />
    </g>
</svg>