<?xml version="1.0" encoding="UTF-8"?>
<svg width="128pt" height="128pt" version="1.1" viewBox="0 0 128 128" xmlns="http://www.w3.org/2000/svg">
 <g fill="#682079">
  <path d="m59.316 85.496s-6.3906-12.898 6.3906-19.348c-2.1289 8.5977 2.8633 7.9375 4.2578 10.746 1.3984 2.8125-2.1289 8.5977-2.1289 8.5977 16.977-7.8203 15.938-20.227 8.5195-30.094-2.1992 3.9375-7.0664 6.5508-7.0664 6.5508s2.8359-5.3828 2.8086-10.852c-3.7617-4.1172-6.3906-6.4492-12.781-8.5977 5.1523 16.48-12.781 14.227-12.781 27.938 0 8.4414 12.781 15.059 12.781 15.059z"/>
  <path d="m64 98.93c19.293 0 34.93-15.637 34.93-34.93s-15.637-34.93-34.93-34.93-34.93 15.637-34.93 34.93 15.637 34.93 34.93 34.93zm0-67.172c17.781 0 32.242 14.465 32.242 32.242 0 17.781-14.465 32.242-32.242 32.242-17.781 0-32.242-14.465-32.242-32.242 0-17.781 14.461-32.242 32.242-32.242z"/>
 </g>
</svg>
